<svg width="8" height="15" viewBox="0 0 8 15" fill="none" xmlns="http://www.w3.org/2000/svg">
<path d="M1.17002 3.00742e-05C1.31941 -0.000478247 1.46702 0.0324941 1.602 0.0965228C1.73698 0.160552 1.8559 0.254011 1.95002 0.370031L6.78002 6.37003C6.9271 6.54896 7.00751 6.7734 7.00751 7.00503C7.00751 7.23665 6.9271 7.4611 6.78002 7.64003L1.78002 13.64C1.61028 13.8442 1.36637 13.9727 1.10194 13.9971C0.837517 14.0214 0.574236 13.9398 0.370019 13.77C0.165803 13.6003 0.0373787 13.3564 0.012999 13.092C-0.0113808 12.8275 0.0702804 12.5642 0.240019 12.36L4.71002 7.00003L0.390019 1.64003C0.267736 1.49324 0.190059 1.3145 0.166179 1.12496C0.142299 0.935407 0.173216 0.742983 0.255272 0.570455C0.337328 0.397928 0.467088 0.252516 0.629198 0.151426C0.791309 0.0503355 0.978985 -0.00220151 1.17002 3.00742e-05Z" fill="white"/>
</svg>
